<svg width="272" height="44" viewBox="0 0 272 44" fill="none" xmlns="http://www.w3.org/2000/svg">
<g filter="url(#filter0_ii_1102_3551)">
<path d="M5.99005 37.3314C8.38528 39.9262 10.5355 41.3043 14.2735 41.8224C19.3135 42.521 25.4572 41.0485 32.3874 39.3274C32.3874 39.3274 50.5512 36.1836 50.5512 21.6127C50.5512 11.2833 39.1739 7.86514 39.1739 7.86514C35.4812 6.29326 31.2397 4.74634 27.4972 3.79824C19.0192 1.65049 11.6254 0.30865 5.44115 6.49286C1.44909 10.4849 1 16.4231 1 23.0598C1 29.0073 3.59483 34.7365 5.99005 37.3314Z" fill="url(#paint0_linear_1102_3551)"/>
<path d="M5.99005 37.3314C8.38528 39.9262 10.5355 41.3043 14.2735 41.8224C19.3135 42.521 25.4572 41.0485 32.3874 39.3274C32.3874 39.3274 50.5512 36.1836 50.5512 21.6127C50.5512 11.2833 39.1739 7.86514 39.1739 7.86514C35.4812 6.29326 31.2397 4.74634 27.4972 3.79824C19.0192 1.65049 11.6254 0.30865 5.44115 6.49286C1.44909 10.4849 1 16.4231 1 23.0598C1 29.0073 3.59483 34.7365 5.99005 37.3314Z" fill="url(#paint1_linear_1102_3551)" fill-opacity="0.4" style="mix-blend-mode:soft-light"/>
</g>
<path d="M5.99005 37.3314C8.38528 39.9262 10.5355 41.3043 14.2735 41.8224C19.3135 42.521 25.4572 41.0485 32.3874 39.3274C32.3874 39.3274 50.5512 36.1836 50.5512 21.6127C50.5512 11.2833 39.1739 7.86514 39.1739 7.86514C35.4812 6.29326 31.2397 4.74634 27.4972 3.79824C19.0192 1.65049 11.6254 0.30865 5.44115 6.49286C1.44909 10.4849 1 16.4231 1 23.0598C1 29.0073 3.59483 34.7365 5.99005 37.3314Z" stroke="white" stroke-opacity="0.4" stroke-width="0.309695"/>
<g filter="url(#filter1_dd_1102_3551)">
<circle cx="33.1051" cy="22.0119" r="12.2755" fill="#EBECF0"/>
<circle cx="33.1051" cy="22.0119" r="12.2755" fill="url(#paint2_linear_1102_3551)" fill-opacity="0.4" style="mix-blend-mode:soft-light"/>
<circle cx="33.1051" cy="22.0119" r="12.1207" stroke="white" stroke-opacity="0.4" stroke-width="0.309695"/>
</g>
<path d="M73.8915 29.9115V14.0885H70.3716V29.9115H73.8915Z" fill="white"/>
<path d="M89.5711 29.9115L90.0235 26.8661H85.0691C81.7699 26.8661 80.2141 25.2992 80.2141 22C80.2141 18.7008 81.7699 17.145 85.0691 17.145H90.0235L89.5711 14.0885H85.0691C79.3203 14.0885 76.5949 16.6263 76.5949 22C76.5949 27.3737 79.3203 29.9115 85.0691 29.9115H89.5711Z" fill="white"/>
<path d="M100.009 30.1322C105.791 30.1322 108.528 27.5281 108.528 22C108.528 16.4719 105.791 13.8678 100.009 13.8678C94.1944 13.8678 91.469 16.4719 91.469 22C91.469 27.5281 94.1944 30.1322 100.009 30.1322ZM100.009 26.9764C98.2771 26.9764 97.0192 26.5792 96.2468 25.7958C95.4744 25.0123 95.0882 23.7434 95.0882 22C95.0882 20.2566 95.4744 18.9877 96.2468 18.2042C97.0192 17.4208 98.2771 17.0346 100.009 17.0346C101.742 17.0346 103 17.4208 103.772 18.2042C104.533 18.9877 104.92 20.2566 104.92 22C104.92 23.7434 104.533 25.0123 103.761 25.7958C102.989 26.5792 101.742 26.9764 100.009 26.9764Z" fill="white"/>
<path d="M128.751 29.6778L129.945 26.6348H124.995C121.699 26.6348 120.144 25.0693 120.144 21.7728C120.144 18.4763 121.699 16.9217 124.995 16.9217H129.945L129.493 13.8678H124.995C119.251 13.8678 116.528 16.4036 116.528 21.7728C116.528 27.142 119.251 29.6778 124.995 29.6778H128.751Z" fill="white"/>
<path d="M148.225 29.6778L141.996 13.8678H136.869L130.596 29.6778H134.366L135.789 25.9513H143.032L144.454 29.6778H148.225ZM139.306 16.7894H139.559L141.886 22.9084H136.957L139.306 16.7894Z" fill="white"/>
<path d="M160.683 24.6834C162.966 23.8124 164.112 22.0153 164.112 19.5567C164.112 17.7817 163.517 16.3925 162.337 15.3782C161.146 14.375 159.393 13.8678 157.089 13.8678H149.956V29.6778H153.473V25.2567H156.979L160.022 29.6778H164.266L160.683 24.6834ZM156.858 16.9217C159.449 16.9217 160.496 17.7597 160.496 19.5567C160.496 21.3318 159.449 22.1807 156.858 22.1807H153.473V16.9217H156.858Z" fill="white"/>
<path d="M166.868 13.8678V29.6778H173.616C179.272 29.6778 181.951 27.142 181.951 21.7728C181.951 16.4036 179.272 13.8678 173.616 13.8678H166.868ZM170.385 26.6348V16.9217H173.616C176.824 16.9217 178.334 18.4763 178.334 21.7728C178.334 25.0693 176.824 26.6348 173.616 26.6348H170.385Z" fill="white"/>
<path d="M200.219 29.6778L193.99 13.8678H188.863L182.59 29.6778H186.361L187.783 25.9513H195.026L196.449 29.6778H200.219ZM191.3 16.7894H191.554L193.88 22.9084H188.952L191.3 16.7894Z" fill="white"/>
<path d="M209.58 29.6778C213.284 29.6778 215.335 28.0461 215.335 25.1795C215.335 23.7132 214.927 22.6438 214.078 21.8941C213.229 21.1554 212.082 20.7254 210.395 20.4167L207.386 19.8765C205.699 19.5678 204.861 19.1378 204.861 18.1676C204.861 17.2745 205.555 16.9217 207.143 16.9217H214.254L213.802 13.8678H207C203.295 13.8678 201.245 15.4554 201.245 18.2337C201.245 19.6119 201.664 20.6703 202.501 21.3869C203.339 22.1035 204.596 22.6107 206.283 22.9084L209.194 23.4265C210.87 23.7242 211.729 24.2093 211.729 25.2567C211.729 26.26 211.035 26.6348 209.447 26.6348H201.068L202.291 29.6778H209.58Z" fill="white"/>
<path d="M229.138 20.108H221.277V13.8678H217.76V29.6778H221.277V23.1509H229.138V29.6778H232.655V13.8678H229.138V20.108Z" fill="white"/>
<path d="M239.711 29.6778V13.8678H236.194V29.6778H239.711Z" fill="white"/>
<path d="M246.745 29.6778V23.6912H253.79V20.7585H246.745V16.9217H255.642L255.19 13.8678H243.228V29.6778H246.745Z" fill="white"/>
<path d="M256.249 13.8678L256.779 16.9217H262.048V29.6778H265.565V16.9217H271.375V13.8678H256.249Z" fill="white"/>
<defs>
<filter id="filter0_ii_1102_3551" x="-0.703259" y="0.29668" width="52.9578" height="43.4065" filterUnits="userSpaceOnUse" color-interpolation-filters="sRGB">
<feFlood flood-opacity="0" result="BackgroundImageFix"/>
<feBlend mode="normal" in="SourceGraphic" in2="BackgroundImageFix" result="shape"/>
<feColorMatrix in="SourceAlpha" type="matrix" values="0 0 0 0 0 0 0 0 0 0 0 0 0 0 0 0 0 0 127 0" result="hardAlpha"/>
<feOffset dx="1.54847" dy="1.54847"/>
<feGaussianBlur stdDeviation="1.54847"/>
<feComposite in2="hardAlpha" operator="arithmetic" k2="-1" k3="1"/>
<feColorMatrix type="matrix" values="0 0 0 0 0 0 0 0 0 0.0745098 0 0 0 0 0.462745 0 0 0 1 0"/>
<feBlend mode="normal" in2="shape" result="effect1_innerShadow_1102_3551"/>
<feColorMatrix in="SourceAlpha" type="matrix" values="0 0 0 0 0 0 0 0 0 0 0 0 0 0 0 0 0 0 127 0" result="hardAlpha"/>
<feOffset dx="-1.54847" dy="-1.54847"/>
<feGaussianBlur stdDeviation="1.54847"/>
<feComposite in2="hardAlpha" operator="arithmetic" k2="-1" k3="1"/>
<feColorMatrix type="matrix" values="0 0 0 0 0.395833 0 0 0 0 0.516667 0 0 0 0 1 0 0 0 1 0"/>
<feBlend mode="normal" in2="effect1_innerShadow_1102_3551" result="effect2_innerShadow_1102_3551"/>
</filter>
<filter id="filter1_dd_1102_3551" x="11.5387" y="0.445547" width="43.133" height="43.1327" filterUnits="userSpaceOnUse" color-interpolation-filters="sRGB">
<feFlood flood-opacity="0" result="BackgroundImageFix"/>
<feColorMatrix in="SourceAlpha" type="matrix" values="0 0 0 0 0 0 0 0 0 0 0 0 0 0 0 0 0 0 127 0" result="hardAlpha"/>
<feOffset dx="3.09695" dy="3.09695"/>
<feGaussianBlur stdDeviation="3.09695"/>
<feColorMatrix type="matrix" values="0 0 0 0 0 0 0 0 0 0.0745098 0 0 0 0 0.462745 0 0 0 1 0"/>
<feBlend mode="normal" in2="BackgroundImageFix" result="effect1_dropShadow_1102_3551"/>
<feColorMatrix in="SourceAlpha" type="matrix" values="0 0 0 0 0 0 0 0 0 0 0 0 0 0 0 0 0 0 127 0" result="hardAlpha"/>
<feOffset dx="-3.09695" dy="-3.09695"/>
<feGaussianBlur stdDeviation="3.09695"/>
<feColorMatrix type="matrix" values="0 0 0 0 0.654167 0 0 0 0 0.723333 0 0 0 0 1 0 0 0 0.4 0"/>
<feBlend mode="normal" in2="effect1_dropShadow_1102_3551" result="effect2_dropShadow_1102_3551"/>
<feBlend mode="normal" in="SourceGraphic" in2="effect2_dropShadow_1102_3551" result="shape"/>
</filter>
<linearGradient id="paint0_linear_1102_3551" x1="50.5512" y1="22.1302" x2="1" y2="22.1302" gradientUnits="userSpaceOnUse">
<stop stop-color="#0029FF"/>
<stop offset="1" stop-color="#7E8EFD"/>
</linearGradient>
<linearGradient id="paint1_linear_1102_3551" x1="-19.8194" y1="22.002" x2="15.5535" y2="66.3912" gradientUnits="userSpaceOnUse">
<stop/>
<stop offset="1" stop-color="white"/>
</linearGradient>
<linearGradient id="paint2_linear_1102_3551" x1="10.5142" y1="22.0132" x2="32.7854" y2="44.5741" gradientUnits="userSpaceOnUse">
<stop/>
<stop offset="1" stop-color="white"/>
</linearGradient>
</defs>
</svg>
