<!-- "display: none" ensures the SVG doesn't take up space even though it's not being shown because of the use of symbol -->
<svg xmlns="http://www.w3.org/2000/svg" style="display:none;">
    <symbol id="arrow" viewBox="0 0 24 24">
        <g>
            <circle cx="12.5" cy="12" r="12" fill="white"/>
            <path d="M7.83317 12.6667H15.7398L13.3198 15.5733C13.2638 15.6408 13.2216 15.7185 13.1956 15.8023C13.1697 15.886 13.1604 15.974 13.1685 16.0613C13.1847 16.2376 13.2704 16.4002 13.4065 16.5133C13.5426 16.6265 13.7182 16.6809 13.8945 16.6647C14.0707 16.6484 14.2333 16.5628 14.3465 16.4267L17.6798 12.4267C17.7023 12.3949 17.7223 12.3614 17.7398 12.3267C17.7398 12.2933 17.7732 12.2733 17.7865 12.24C17.8167 12.1636 17.8325 12.0822 17.8332 12C17.8325 11.9178 17.8167 11.8365 17.7865 11.76C17.7865 11.7267 17.7532 11.7067 17.7398 11.6733C17.7223 11.6386 17.7023 11.6052 17.6798 11.5733L14.3465 7.57334C14.2838 7.49809 14.2053 7.43757 14.1166 7.39609C14.0279 7.35461 13.9311 7.33319 13.8332 7.33334C13.6774 7.33304 13.5264 7.38729 13.4065 7.48668C13.339 7.54264 13.2832 7.61138 13.2423 7.68894C13.2014 7.76651 13.1762 7.85138 13.1681 7.9387C13.1601 8.02602 13.1693 8.11406 13.1954 8.1978C13.2214 8.28153 13.2637 8.35931 13.3198 8.42668L15.7398 11.3333H7.83317C7.65636 11.3333 7.48679 11.4036 7.36177 11.5286C7.23674 11.6536 7.1665 11.8232 7.1665 12C7.1665 12.1768 7.23674 12.3464 7.36177 12.4714C7.48679 12.5964 7.65636 12.6667 7.83317 12.6667Z" fill="#0029FF" />
        </g>
        <g id="Invisible_Shape">
            <rect fill="none" stroke="none" width="24" height="24"></rect>
        </g>
    </symbol>
    <symbol id="XXX" viewBox="0 0 24 24">
        <g>

        </g>
        <g id="Invisible_Shape">
            <rect fill="none" stroke="none" width="24" height="24"></rect>
        </g>
    </symbol>
    
</svg>