<!-- "display: none" ensures the SVG doesn't take up space even though it's not being shown because of the use of symbol -->
<svg xmlns="http://www.w3.org/2000/svg" style="display:none;">
    <symbol id="arrow" viewBox="0 0 24 24">
        <g>
            <circle cx="12.5" cy="12" r="12" fill="white"/>
            <path d="M7.83317 12.6667H15.7398L13.3198 15.5733C13.2638 15.6408 13.2216 15.7185 13.1956 15.8023C13.1697 15.886 13.1604 15.974 13.1685 16.0613C13.1847 16.2376 13.2704 16.4002 13.4065 16.5133C13.5426 16.6265 13.7182 16.6809 13.8945 16.6647C14.0707 16.6484 14.2333 16.5628 14.3465 16.4267L17.6798 12.4267C17.7023 12.3949 17.7223 12.3614 17.7398 12.3267C17.7398 12.2933 17.7732 12.2733 17.7865 12.24C17.8167 12.1636 17.8325 12.0822 17.8332 12C17.8325 11.9178 17.8167 11.8365 17.7865 11.76C17.7865 11.7267 17.7532 11.7067 17.7398 11.6733C17.7223 11.6386 17.7023 11.6052 17.6798 11.5733L14.3465 7.57334C14.2838 7.49809 14.2053 7.43757 14.1166 7.39609C14.0279 7.35461 13.9311 7.33319 13.8332 7.33334C13.6774 7.33304 13.5264 7.38729 13.4065 7.48668C13.339 7.54264 13.2832 7.61138 13.2423 7.68894C13.2014 7.76651 13.1762 7.85138 13.1681 7.9387C13.1601 8.02602 13.1693 8.11406 13.1954 8.1978C13.2214 8.28153 13.2637 8.35931 13.3198 8.42668L15.7398 11.3333H7.83317C7.65636 11.3333 7.48679 11.4036 7.36177 11.5286C7.23674 11.6536 7.1665 11.8232 7.1665 12C7.1665 12.1768 7.23674 12.3464 7.36177 12.4714C7.48679 12.5964 7.65636 12.6667 7.83317 12.6667Z" fill="#0029FF" />
        </g>
        <g id="Invisible_Shape">
            <rect fill="none" stroke="none" width="24" height="24"></rect>
        </g>
    </symbol>
    <symbol id="cross" width="14" height="14" viewBox="0 0 14 14">
        <g>
            <path d="M14 1.41L12.59 0L7 5.59L1.41 0L0 1.41L5.59 7L0 12.59L1.41 14L7 8.41L12.59 14L14 12.59L8.41 7L14 1.41Z" fill="#F8FAFC"/>
        </g>
    </symbol>
    <symbol id="arrow-up" width="22" height="10" viewBox="0 0 22 10">
        <g>
            <path d="M1 9L11 1L21 9" stroke="#F8FAFC"/>
        </g>
    </symbol>
    <symbol id="arrow-down" width="22" height="10" viewBox="0 0 22 10">
        <g>
            <path d="M1 1L11 9L21 1" stroke="#F8FAFC"/>
        </g>
    </symbol>
    <symbol id="clipboard-icon" width="36" height="36" viewBox="0 0 38 38">
        <g>
            <path d="M19 37C28.9411 37 37 28.9411 37 19C37 9.05888 28.9411 1 19 1C9.05888 1 1 9.05888 1 19C1 28.9411 9.05888 37 19 37Z" stroke="#F8FAFC"/>
            <path d="M22.239 24.9657V26.3162C22.239 26.4227 22.218 26.528 22.1773 26.6264C22.1365 26.7247 22.0768 26.8141 22.0016 26.8893C21.9263 26.9646 21.837 27.0243 21.7386 27.065C21.6403 27.1058 21.5349 27.1267 21.4285 27.1267H12.2495C12.0345 27.1267 11.8284 27.0413 11.6764 26.8893C11.5244 26.7373 11.439 26.5312 11.439 26.3162V13.8962C11.439 13.6813 11.5244 13.4751 11.6764 13.3231C11.8284 13.1711 12.0345 13.0857 12.2495 13.0857H14.679V23.0762C14.6798 23.5773 14.8793 24.0575 15.2336 24.4117C15.588 24.7659 16.0684 24.9652 16.5695 24.9657H22.239ZM22.239 13.3552V9.8457H16.5695C16.3545 9.8457 16.1484 9.9311 15.9964 10.0831C15.8444 10.2351 15.759 10.4413 15.759 10.6562V23.0762C15.759 23.2912 15.8444 23.4973 15.9964 23.6493C16.1484 23.8013 16.3545 23.8867 16.5695 23.8867H25.7495C25.9644 23.8867 26.1706 23.8013 26.3226 23.6493C26.4746 23.4973 26.56 23.2912 26.56 23.0762V14.1657H23.0495C22.8349 14.1652 22.6292 14.0797 22.4773 13.9281C22.3255 13.7764 22.2398 13.5708 22.239 13.3562V13.3552ZM26.3224 12.3081L24.0966 10.0833C23.9446 9.93128 23.7386 9.84581 23.5237 9.8457H23.3179V13.0857H26.559V12.88C26.5589 12.6651 26.4734 12.459 26.3214 12.3071L26.3224 12.3081Z" fill="#F8FAFC"/>
        </g>
    </symbol>
    <symbol id="XXX" viewBox="0 0 24 24">
        <g>

        </g>
        <g id="Invisible_Shape">
            <rect fill="none" stroke="none" width="24" height="24"></rect>
        </g>
    </symbol>
</svg>