<svg width="37" height="36" viewBox="0 0 37 36" fill="none" xmlns="http://www.w3.org/2000/svg">
<path d="M18.5 35.5C28.165 35.5 36 27.665 36 18C36 8.33502 28.165 0.5 18.5 0.5C8.83502 0.5 1 8.33502 1 18C1 27.665 8.83502 35.5 18.5 35.5Z" stroke="#F8FAFC"/>
<path d="M18.4999 19.0849C19.4662 19.0851 20.4108 18.7988 21.2143 18.2621C22.0177 17.7254 22.644 16.9625 23.0139 16.0698C23.3837 15.1772 23.4806 14.1949 23.2921 13.2472C23.1036 12.2995 22.6384 11.429 21.9551 10.7457C21.2719 10.0625 20.4014 9.59722 19.4537 9.40876C18.506 9.2203 17.5237 9.31713 16.6311 9.68698C15.7384 10.0568 14.9755 10.6831 14.4388 11.4866C13.9021 12.2901 13.6157 13.2347 13.6159 14.2009C13.6165 15.4961 14.1312 16.7381 15.047 17.6539C15.9628 18.5697 17.2048 19.0844 18.4999 19.0849ZM22.8419 20.1699H20.9719C20.1966 20.5279 19.3529 20.7132 18.4989 20.7132C17.645 20.7132 16.8012 20.5279 16.0259 20.1699H14.1579C13.5873 20.1698 13.0223 20.2822 12.4952 20.5006C11.9681 20.719 11.4892 21.0392 11.086 21.4428C10.6827 21.8464 10.3629 22.3256 10.145 22.8529C9.9271 23.3803 9.81526 23.9454 9.81592 24.5159V25.0589C9.81619 25.4906 9.98779 25.9046 10.293 26.2098C10.5983 26.5151 11.0122 26.6867 11.4439 26.6869H25.5549C25.9866 26.6867 26.4005 26.5151 26.7058 26.2098C27.0111 25.9046 27.1827 25.4906 27.1829 25.0589V24.5159C27.1836 23.9454 27.0717 23.3803 26.8538 22.8529C26.6359 22.3256 26.3162 21.8464 25.9129 21.4428C25.5096 21.0392 25.0307 20.719 24.5036 20.5006C23.9765 20.2822 23.4115 20.1698 22.8409 20.1699H22.8419Z" fill="#F8FAFC"/>
</svg>
